# xmcd
#
# Track frame offsets:
#	150
#	11447
#	25082
#	40055
#	56765
#	70672
#	85045
#	90612
#	103950
#	114397
#	125240
#	141875
#	153135
#	166855
#
# Disc length: 2283 seconds
#
# Revision: 0
# Processed by: cddbd v1.5.2PL0 Copyright (c) Steve Scherf et al.
# Submitted via: EasyCDDAExtractor 16.0.6.1
#
DISCID=ad08e90e
DTITLE=Τσιφτετέλια - Χορέψτε Τσιφτετέλι
DYEAR=1972
DGENRE=Τσιφτετέλι
TTITLE0=Θέμα απο τσιφτετέλι
TTITLE1=Τσιφτετέλι Νο1
TTITLE2=Χορεύω για σένα
TTITLE3=Κασμίρ αγάπη μου
TTITLE4=Τσιφτετέλι Νο2
TTITLE5=Πορτ-Σάϊντ
TTITLE6=Ταξίμι
TTITLE7=Σεμπρά Σεμπρά
TTITLE8=Τσιφτετέλι Νο3
TTITLE9=Η ζωή μου είσαι εσύ
TTITLE10=Τσιφτετέλι Νο4
TTITLE11=Για την αγάπη σου πονάω
TTITLE12=Ταξίμι για χορευτάς
TTITLE13=Τσιφτετέλι ταξίμι
EXTD=
EXTT0=
EXTT1=
EXTT2=
EXTT3=
EXTT4=
EXTT5=
EXTT6=
EXTT7=
EXTT8=
EXTT9=
EXTT10=
EXTT11=
EXTT12=
EXTT13=
PLAYORDER=
